<?xml version="1.0" encoding="UTF-8"?>
<svg id="Camada_2" data-name="Camada 2" xmlns="http://www.w3.org/2000/svg" viewBox="0 0 1000 1000">
  <defs>
    <style>
      .cls-1 {
        font-size: 157.03px;
      }

      .cls-1, .cls-2 {
        font-family: Montserrat-ExtraBold, Montserrat;
        font-weight: 700;
      }

      .cls-2 {
        font-size: 165.06px;
      }

      .cls-2, .cls-3, .cls-4, .cls-5 {
        fill: #042940;
      }

      .cls-6 {
        fill: none;
        stroke: #042940;
        stroke-miterlimit: 10;
        stroke-width: 10px;
      }

      .cls-4 {
        letter-spacing: 0em;
      }

      .cls-7 {
        fill: #9fc131;
      }

      .cls-5 {
        letter-spacing: 0em;
      }

      .cls-8 {
        letter-spacing: -.01em;
      }
    </style>
  </defs>
  <path d="m249.52,395.83c6.27-9.11,15.01-15.03,24.12-20.41,9.16-5.41,16.16-12.95,22.37-21.37,2.46-3.33,5.24-4.47,8.57-3.37,3.2,1.06,4.77,3.56,4.78,7.64.03,15.15-1.27,30.12-6.14,44.59-4.11,12.21-10.51,22.91-21.04,30.71-8.06,5.97-17.2,9.1-27.19,9.63-1.72.09-2.21.62-2.44,2.3-2.29,17.09-4.29,34.19-2.65,51.46.95,9.95,2.53,19.84,3.31,29.79.37,4.75-.18,9.63-.78,14.39-1.77,14.18-3.8,28.36-2.93,42.68.67,11.07,2.14,22.09,3.18,33.15.18,1.87,1.36,1.58,2.52,1.58,13.81,0,27.61-.02,41.42,0,5.28,0,8.4,4.07,7.07,9.08-.75,2.81-2.82,4.63-5.76,4.87-1.73.14-3.49.08-5.23.08-51.42,0-102.84.01-154.26.02-5.69,0-9.02-3.59-7.96-8.59.75-3.53,3.25-5.45,7.29-5.45,13.33-.02,26.66,0,39.99,0,.85,0,1.71,0,3.25,0,0-4.09-.18-7.97.03-11.82.76-14.02,2.03-28.02,2.34-42.04.18-8.21-1.1-16.44-1.72-24.67-.08-1.1-.28-1.86-1.75-1.95-23.46-1.54-38.36-14.6-47.01-35.59-6.7-16.28-8.14-33.5-7.85-50.91.05-3.01,2.16-5.39,5.05-6.21,2.84-.81,5.71.18,7.61,2.64,1.98,2.57,3.84,5.25,5.93,7.74,6.05,7.21,13.65,12.51,21.56,17.43,6.71,4.17,13.05,8.76,17.63,15.37.06.09.28.08.74.19-.36-5.68-.53-11.28-1.1-16.83-2.53-24.71-2.69-49.41.08-74.11,2.06-18.35.69-36.6-1.83-54.8-.79-5.68,2.13-8.9,7.92-8.9,18.81,0,37.61.14,56.42-.09,6.11-.07,9.48,3.58,8.52,10.03-2.45,16.4-4.7,32.84-4.17,49.49.02.76.07,1.53.11,2.29Zm-11.57,127.66c-.95-13.45-2.63-26.78-2.63-40.12,0-13.33,1.67-26.67,2.61-40.13-.24-.03-.78-.16-1.32-.16-13.32-.01-26.65.02-39.97-.04-1.72,0-1.98.71-1.87,2.15.73,9.96,1.67,19.9,2.07,29.87.42,10.76.49,21.53.37,32.3-.06,5.34-.87,10.66-1.35,16.13h42.1Zm-42.1,14.66c.33,3.6.82,6.91.9,10.22.26,11.01.77,22.03.44,33.02-.34,11.4-1.56,22.78-2.38,34.16-.07.9,0,1.82,0,2.74h43.12c-.94-13.44-2.61-26.76-2.61-40.09,0-13.31,1.66-26.63,2.61-40.06h-42.08Zm42.88-189.71h-42.92c.05.64.09,1.1.12,1.56.63,9.48,1.86,18.97,1.72,28.44-.18,12.26-1.48,24.51-2.25,36.76-.28,4.4-.44,8.8-.67,13.33h43.99c-4.61-26.71-4.62-53.28.01-80.1Z"/>
  <path d="m323.16,591.18c-14.49-.64-28.77-2.42-42.32-7.97-15.52-6.36-27.3-16.56-32.89-32.84-2.51-7.3-3.35-14.84-2.21-22.51.62-4.21,3.48-6.71,7.6-6.15,10.83,1.49,21.68,2.94,32.07,6.62,10.31,3.65,17.3,11.16,23.24,19.9,3.74,5.5,7.02,11.39,11.37,16.36,4.29,4.9,9.57,8.97,14.6,13.2,3.15,2.65,4.39,5.14,3.4,8.37-1.02,3.32-3.62,5.01-7.72,5.02-2.38,0-4.76,0-7.14,0Z"/>
  <path class="cls-7" d="m300.98,375.54c-.47,10-1.72,19.85-5.54,29.19-4.37,10.7-11.34,18.8-22.44,22.62-4.97,1.71-10.11,2.28-15.32,1.47-2.86-.44-4.56-2.42-4.16-5.26,1.04-7.47,2.06-14.96,4.59-22.12,2.51-7.11,7.64-11.91,13.6-16,3.75-2.57,7.77-4.82,11.16-7.81,3.35-2.95,6.13-6.59,9.02-10.05,1.81-2.17,3.51-3.02,5.71-2.32,2.25.71,3.4,2.52,3.4,5.34,0,1.64-.01,3.28-.02,4.93Z"/>
  <g>
    <path class="cls-7" d="m237.95,523.49h-42.1c.48-5.46,1.3-10.79,1.35-16.13.12-10.77.05-21.54-.37-32.3-.39-9.97-1.33-19.92-2.07-29.87-.11-1.43.15-2.16,1.87-2.15,13.32.06,26.65.03,39.97.04.54,0,1.08.13,1.32.16-.95,13.46-2.61,26.79-2.61,40.13,0,13.33,1.68,26.66,2.63,40.12Z"/>
    <path class="cls-7" d="m195.85,538.15h42.08c-.94,13.43-2.61,26.75-2.61,40.06,0,13.32,1.66,26.65,2.61,40.09h-43.12c0-.92-.06-1.83,0-2.74.82-11.39,2.04-22.76,2.38-34.16.33-10.99-.18-22.02-.44-33.02-.08-3.31-.57-6.62-.9-10.22Z"/>
    <path class="cls-7" d="m238.73,348.44c-4.63,26.81-4.62,53.38-.01,80.1h-43.99c.22-4.53.39-8.93.67-13.33.78-12.26,2.07-24.5,2.25-36.76.14-9.47-1.1-18.96-1.72-28.44-.03-.46-.07-.92-.12-1.56h42.92Z"/>
  </g>
  <path class="cls-7" d="m135.78,480.68c.61,8.87,1.92,17.59,5.53,25.81,4.14,9.41,10.56,16.47,20.63,19.65,4.51,1.42,9.14,1.83,13.83,1.01,2.57-.45,4.06-2.24,3.65-4.75-1.08-6.61-2.14-13.24-4.55-19.55-2.4-6.26-7.1-10.43-12.55-13.94-3.42-2.21-7.09-4.13-10.2-6.72-3.07-2.56-5.64-5.73-8.31-8.74-1.67-1.89-3.22-2.61-5.18-1.95-2.02.68-3.02,2.3-2.96,4.81.03,1.46.07,2.91.11,4.37Z"/>
  <path class="cls-7" d="m308.59,578.41c-9.33-.43-18.51-1.62-27.23-5.35-9.99-4.27-17.57-11.11-21.17-22.04-1.61-4.9-2.16-9.96-1.42-15.1.4-2.82,2.24-4.5,4.89-4.12,6.97,1,13.95,1.97,20.64,4.44,6.63,2.45,11.13,7.49,14.96,13.35,2.41,3.69,4.52,7.64,7.32,10.97,2.76,3.29,6.16,6.02,9.4,8.85,2.03,1.78,2.83,3.45,2.19,5.62-.66,2.23-2.33,3.36-4.97,3.37-1.53,0-3.06,0-4.59,0Z"/>
  <text class="cls-1" transform="translate(354.32 470.64)"><tspan class="cls-3" x="0" y="0">TR</tspan><tspan class="cls-6" x="215.92" y="0">O</tspan><tspan class="cls-5" x="348.77" y="0">P</tspan><tspan class="cls-4" x="462.94" y="0">I</tspan></text>
  <text class="cls-2" transform="translate(360.32 621.75)"><tspan class="cls-8" x="0" y="0">C</tspan><tspan x="119.83" y="0">ANA</tspan></text>
</svg>